<svg width="32" height="32" viewBox="0 0 32 32" fill="none" xmlns="http://www.w3.org/2000/svg">
<path d="M14.5719 22.5069C14.4675 22.5073 14.3637 22.4911 14.2644 22.4588C14.0858 22.401 13.9272 22.2942 13.8065 22.1505C13.6858 22.0068 13.6079 21.8321 13.5819 21.6463C13.4475 20.7088 12.335 19.6175 11.2931 19.4056C11.1211 19.37 10.9614 19.2898 10.8303 19.1729C10.6991 19.056 10.6011 18.9066 10.546 18.7398C10.491 18.5729 10.4808 18.3945 10.5166 18.2225C10.5524 18.0505 10.6329 17.891 10.75 17.76L23.9431 3.06625C23.955 3.0525 23.9675 3.03938 23.98 3.02688C24.6428 2.36596 25.5406 1.99481 26.4766 1.99481C27.4126 1.99481 28.3104 2.36596 28.9731 3.02688C29.6338 3.68797 30.0055 4.58397 30.0067 5.51858C30.008 6.45319 29.6388 7.35021 28.98 8.01313L15.2925 22.2006C15.1992 22.2975 15.0872 22.3746 14.9634 22.4272C14.8396 22.4798 14.7064 22.5069 14.5719 22.5069ZM7.49312 30.0069C5.48437 30.0069 3.4025 28.9513 2.19 27.3194C2.07949 27.1706 2.0125 26.994 1.99652 26.8094C1.98054 26.6247 2.01619 26.4392 2.09949 26.2737C2.1828 26.1081 2.31047 25.969 2.46827 25.8717C2.62607 25.7745 2.80778 25.7231 2.99312 25.7231C3.32687 25.7231 4.24312 25.4188 4.24312 24.4375C4.24312 21.9956 6.20562 20.0088 8.61812 20.0088C11.0306 20.0088 12.9931 21.9956 12.9931 24.4375C12.9931 27.5075 10.5256 30.0069 7.49312 30.0069Z" fill="black"/>
</svg>
