<svg width="32" height="32" viewBox="0 0 32 32" fill="none" xmlns="http://www.w3.org/2000/svg">
<path d="M22.75 10.9375L21.76 9.78578C20.9206 8.90414 19.9106 8.20251 18.7914 7.72359C17.6722 7.24467 16.4673 6.99848 15.25 7C10.2812 7 6.25 11.0312 6.25 16C6.25 20.9687 10.2812 25 15.25 25C17.1114 24.9999 18.927 24.4229 20.447 23.3484C21.967 22.2739 23.1166 20.7547 23.7377 19" stroke="#07020D" stroke-width="3" stroke-miterlimit="10" stroke-linecap="square"/>
<path d="M25.75 7.20859V14.3125C25.75 14.3622 25.7302 14.4099 25.6951 14.4451C25.6599 14.4802 25.6122 14.5 25.5625 14.5H18.4586C18.4215 14.5 18.3852 14.489 18.3543 14.4684C18.3235 14.4478 18.2994 14.4185 18.2852 14.3843C18.271 14.35 18.2673 14.3123 18.2745 14.2759C18.2818 14.2395 18.2997 14.2061 18.3259 14.1798L25.4298 7.07593C25.4561 7.04968 25.4895 7.0318 25.5259 7.02455C25.5623 7.01731 25.6 7.02102 25.6343 7.03522C25.6685 7.04943 25.6978 7.07348 25.7184 7.10434C25.739 7.13521 25.75 7.17148 25.75 7.20859Z" fill="#07020D"/>
</svg>
