<svg width="32" height="32" viewBox="0 0 32 32" fill="none" xmlns="http://www.w3.org/2000/svg">
<path d="M16 17.8667L9.46667 24.4C9.22223 24.6444 8.91112 24.7667 8.53334 24.7667C8.15556 24.7667 7.84445 24.6444 7.6 24.4C7.35556 24.1556 7.23334 23.8445 7.23334 23.4667C7.23334 23.0889 7.35556 22.7778 7.6 22.5333L14.1333 16L7.6 9.46667C7.35556 9.22223 7.23334 8.91112 7.23334 8.53334C7.23334 8.15556 7.35556 7.84445 7.6 7.6C7.84445 7.35556 8.15556 7.23334 8.53334 7.23334C8.91112 7.23334 9.22223 7.35556 9.46667 7.6L16 14.1333L22.5333 7.6C22.7778 7.35556 23.0889 7.23334 23.4667 7.23334C23.8445 7.23334 24.1556 7.35556 24.4 7.6C24.6444 7.84445 24.7667 8.15556 24.7667 8.53334C24.7667 8.91112 24.6444 9.22223 24.4 9.46667L17.8667 16L24.4 22.5333C24.6444 22.7778 24.7667 23.0889 24.7667 23.4667C24.7667 23.8445 24.6444 24.1556 24.4 24.4C24.1556 24.6444 23.8445 24.7667 23.4667 24.7667C23.0889 24.7667 22.7778 24.6444 22.5333 24.4L16 17.8667Z" fill="#07020D"/>
</svg>
