<svg width="32" height="32" viewBox="0 0 32 32" fill="none" xmlns="http://www.w3.org/2000/svg">
<path d="M5.33335 29.3333H21.3334C22.0406 29.3333 22.7189 29.0524 23.219 28.5523C23.7191 28.0522 24 27.3739 24 26.6667V10.6667C24 9.95942 23.7191 9.28115 23.219 8.78105C22.7189 8.28095 22.0406 8 21.3334 8H5.33335C4.62611 8 3.94783 8.28095 3.44774 8.78105C2.94764 9.28115 2.66669 9.95942 2.66669 10.6667V26.6667C2.66669 27.3739 2.94764 28.0522 3.44774 28.5523C3.94783 29.0524 4.62611 29.3333 5.33335 29.3333ZM8.00002 17.3333H12V13.3333H14.6667V17.3333H18.6667V20H14.6667V24H12V20H8.00002V17.3333Z" fill="black"/>
<path d="M24.6667 4.66667H8.66669V7.33333H24.6667V23.3333H27.3334V7.33333C27.3334 5.86267 26.1374 4.66667 24.6667 4.66667Z" fill="black"/>
</svg>
