<svg width="148" height="25" viewBox="0 0 148 25" fill="none" xmlns="http://www.w3.org/2000/svg">
<path d="M0.125 7H1.64062C1.65104 4.77083 1.6875 3.45312 1.75 3.04688C1.86458 2.10938 2.25521 1.36979 2.92188 0.828125C3.59896 0.276042 4.55208 0 5.78125 0C6.66667 0 7.66667 0.203125 8.78125 0.609375V3.85938C8.16667 3.68229 7.66146 3.59375 7.26562 3.59375C6.76562 3.59375 6.40104 3.69792 6.17188 3.90625C6.00521 4.0625 5.92188 4.38542 5.92188 4.875L5.90625 7H8.60938V10.625H5.90625V24H1.64062V10.625H0.125V7ZM10.125 7H13.7812V9.14062C14.1771 8.29688 14.7031 7.65625 15.3594 7.21875C16.0156 6.78125 16.7344 6.5625 17.5156 6.5625C18.0677 6.5625 18.6458 6.70833 19.25 7L17.9219 10.6719C17.4219 10.4219 17.0104 10.2969 16.6875 10.2969C16.0312 10.2969 15.474 10.7031 15.0156 11.5156C14.5677 12.3281 14.3438 13.9219 14.3438 16.2969L14.3594 17.125V24H10.125V7ZM33.9375 7H38.1875V24H33.9375V22.2031C33.1042 22.9948 32.2656 23.5677 31.4219 23.9219C30.5885 24.2656 29.6823 24.4375 28.7031 24.4375C26.5052 24.4375 24.6042 23.5885 23 21.8906C21.3958 20.1823 20.5938 18.0625 20.5938 15.5312C20.5938 12.9062 21.3698 10.7552 22.9219 9.07812C24.474 7.40104 26.3594 6.5625 28.5781 6.5625C29.599 6.5625 30.5573 6.75521 31.4531 7.14062C32.349 7.52604 33.1771 8.10417 33.9375 8.875V7ZM29.4531 10.5C28.1302 10.5 27.0312 10.9688 26.1562 11.9062C25.2812 12.8333 24.8438 14.026 24.8438 15.4844C24.8438 16.9531 25.2865 18.1615 26.1719 19.1094C27.0677 20.0573 28.1667 20.5312 29.4688 20.5312C30.8125 20.5312 31.9271 20.0677 32.8125 19.1406C33.6979 18.2031 34.1406 16.9792 34.1406 15.4688C34.1406 13.9896 33.6979 12.7917 32.8125 11.875C31.9271 10.9583 30.8073 10.5 29.4531 10.5ZM42.4688 7H46.75V8.95312C47.4792 8.15104 48.2865 7.55208 49.1719 7.15625C50.0677 6.76042 51.0417 6.5625 52.0938 6.5625C53.1562 6.5625 54.1146 6.82292 54.9688 7.34375C55.8229 7.86458 56.5104 8.625 57.0312 9.625C57.7083 8.625 58.5365 7.86458 59.5156 7.34375C60.5052 6.82292 61.5833 6.5625 62.75 6.5625C63.9583 6.5625 65.0208 6.84375 65.9375 7.40625C66.8542 7.96875 67.5104 8.70312 67.9062 9.60938C68.3125 10.5156 68.5156 11.9896 68.5156 14.0312V24H64.2188V15.375C64.2188 13.4479 63.9792 12.1458 63.5 11.4688C63.0208 10.7812 62.3021 10.4375 61.3438 10.4375C60.6146 10.4375 59.9583 10.6458 59.375 11.0625C58.8021 11.4792 58.375 12.0573 58.0938 12.7969C57.8125 13.526 57.6719 14.7031 57.6719 16.3281V24H53.375V15.7656C53.375 14.2448 53.2604 13.1458 53.0312 12.4688C52.8125 11.7812 52.4792 11.2708 52.0312 10.9375C51.5833 10.6042 51.0417 10.4375 50.4062 10.4375C49.6979 10.4375 49.0521 10.651 48.4688 11.0781C47.8958 11.4948 47.4635 12.0833 47.1719 12.8438C46.8906 13.6042 46.75 14.8021 46.75 16.4375V24H42.4688V7ZM89.625 16.7344H75.9219C76.1198 17.9427 76.6458 18.9062 77.5 19.625C78.3646 20.3333 79.4635 20.6875 80.7969 20.6875C82.3906 20.6875 83.7604 20.1302 84.9062 19.0156L88.5 20.7031C87.6042 21.974 86.5312 22.9167 85.2812 23.5312C84.0312 24.1354 82.5469 24.4375 80.8281 24.4375C78.1615 24.4375 75.9896 23.599 74.3125 21.9219C72.6354 20.2344 71.7969 18.125 71.7969 15.5938C71.7969 13 72.6302 10.849 74.2969 9.14062C75.974 7.42188 78.0729 6.5625 80.5938 6.5625C83.2708 6.5625 85.4479 7.42188 87.125 9.14062C88.8021 10.849 89.6406 13.1094 89.6406 15.9219L89.625 16.7344ZM85.3438 13.375C85.0625 12.4271 84.5052 11.6562 83.6719 11.0625C82.849 10.4688 81.8906 10.1719 80.7969 10.1719C79.6094 10.1719 78.5677 10.5052 77.6719 11.1719C77.1094 11.5885 76.5885 12.3229 76.1094 13.375H85.3438ZM92.6406 0.4375H96.9062V24H92.6406V0.4375ZM113.344 7H117.594V24H113.344V22.2031C112.51 22.9948 111.672 23.5677 110.828 23.9219C109.995 24.2656 109.089 24.4375 108.109 24.4375C105.911 24.4375 104.01 23.5885 102.406 21.8906C100.802 20.1823 100 18.0625 100 15.5312C100 12.9062 100.776 10.7552 102.328 9.07812C103.88 7.40104 105.766 6.5625 107.984 6.5625C109.005 6.5625 109.964 6.75521 110.859 7.14062C111.755 7.52604 112.583 8.10417 113.344 8.875V7ZM108.859 10.5C107.536 10.5 106.438 10.9688 105.562 11.9062C104.688 12.8333 104.25 14.026 104.25 15.4844C104.25 16.9531 104.693 18.1615 105.578 19.1094C106.474 20.0573 107.573 20.5312 108.875 20.5312C110.219 20.5312 111.333 20.0677 112.219 19.1406C113.104 18.2031 113.547 16.9792 113.547 15.4688C113.547 13.9896 113.104 12.7917 112.219 11.875C111.333 10.9583 110.214 10.5 108.859 10.5ZM126.141 0.4375V8.875C126.911 8.10417 127.745 7.52604 128.641 7.14062C129.536 6.75521 130.495 6.5625 131.516 6.5625C133.734 6.5625 135.62 7.40104 137.172 9.07812C138.724 10.7552 139.5 12.9062 139.5 15.5312C139.5 18.0625 138.698 20.1823 137.094 21.8906C135.49 23.5885 133.589 24.4375 131.391 24.4375C130.411 24.4375 129.5 24.2656 128.656 23.9219C127.812 23.5677 126.974 22.9948 126.141 22.2031V24H121.906V0.4375H126.141ZM130.625 10.5C129.281 10.5 128.167 10.9583 127.281 11.875C126.396 12.7917 125.953 13.9896 125.953 15.4688C125.953 16.9792 126.396 18.2031 127.281 19.1406C128.167 20.0677 129.281 20.5312 130.625 20.5312C131.927 20.5312 133.021 20.0573 133.906 19.1094C134.802 18.1615 135.25 16.9531 135.25 15.4844C135.25 14.026 134.812 12.8333 133.938 11.9062C133.062 10.9688 131.958 10.5 130.625 10.5ZM145.359 19.5469C146.036 19.5469 146.615 19.7865 147.094 20.2656C147.573 20.7344 147.812 21.3073 147.812 21.9844C147.812 22.6615 147.573 23.2396 147.094 23.7188C146.615 24.1979 146.036 24.4375 145.359 24.4375C144.682 24.4375 144.104 24.1979 143.625 23.7188C143.146 23.2396 142.906 22.6615 142.906 21.9844C142.906 21.3073 143.146 20.7344 143.625 20.2656C144.104 19.7865 144.682 19.5469 145.359 19.5469Z" fill="#FCFAF9"/>
</svg>
