<svg width="64" height="64" viewBox="0 0 64 64" fill="none" xmlns="http://www.w3.org/2000/svg">
<path d="M32 4C26.4621 4 21.0486 5.64217 16.444 8.71885C11.8395 11.7955 8.25064 16.1685 6.13139 21.2849C4.01213 26.4012 3.45764 32.0311 4.53802 37.4625C5.61841 42.894 8.28515 47.8831 12.201 51.799C16.1169 55.7149 21.106 58.3816 26.5375 59.462C31.969 60.5424 37.5988 59.9879 42.7152 57.8686C47.8315 55.7494 52.2045 52.1605 55.2812 47.556C58.3578 42.9514 60 37.5379 60 32C60 24.5739 57.05 17.452 51.799 12.201C46.548 6.94999 39.4261 4 32 4ZM46.894 33.79L22.894 45.79C22.589 45.9424 22.2501 46.0143 21.9095 45.9989C21.5689 45.9835 21.2379 45.8812 20.948 45.7019C20.658 45.5225 20.4187 45.272 20.2528 44.9741C20.0869 44.6763 19.9999 44.341 20 44V20C20.0002 19.6592 20.0875 19.3241 20.2535 19.0265C20.4196 18.729 20.6589 18.4787 20.9488 18.2996C21.2387 18.1205 21.5696 18.0184 21.91 18.0031C22.2505 17.9878 22.5892 18.0597 22.894 18.212L46.894 30.212C47.2258 30.3783 47.5047 30.6336 47.6997 30.9494C47.8946 31.2651 47.9979 31.6289 47.9979 32C47.9979 32.3711 47.8946 32.7349 47.6997 33.0507C47.5047 33.3664 47.2258 33.6217 46.894 33.788" fill="#5DB7DE"/>
</svg>
