<svg width="32" height="32" viewBox="0 0 32 32" fill="none" xmlns="http://www.w3.org/2000/svg">
<path d="M18.9706 20.304L13.3133 14.6467L5.77065 22.1893L8.59998 25.0173C9.35009 25.7672 10.3673 26.1885 11.428 26.1885C12.4886 26.1885 13.5059 25.7672 14.256 25.0173L18.9706 20.304ZM17.0453 26H20.6667C21.0203 26 21.3594 26.1405 21.6095 26.3905C21.8595 26.6406 22 26.9797 22 27.3333C22 27.687 21.8595 28.0261 21.6095 28.2761C21.3594 28.5262 21.0203 28.6667 20.6667 28.6667H5.99998C5.66194 28.6664 5.33663 28.5377 5.08986 28.3067C4.8431 28.0756 4.69329 27.7595 4.67076 27.4222C4.64823 27.0849 4.75465 26.7517 4.9685 26.4899C5.18235 26.2281 5.48765 26.0573 5.82265 26.012L3.88532 24.0747C3.38539 23.5746 3.10455 22.8964 3.10455 22.1893C3.10455 21.4822 3.38539 20.8041 3.88532 20.304L18.9706 5.21867C19.4707 4.71875 20.1489 4.4379 20.856 4.4379C21.5631 4.4379 22.2412 4.71875 22.7413 5.21867L28.4 10.876C28.8999 11.3761 29.1807 12.0542 29.1807 12.7613C29.1807 13.4684 28.8999 14.1466 28.4 14.6467L17.0453 26Z" fill="black"/>
</svg>
